<svg class="icon"
    style="width: 1em;height: 1em;vertical-align: middle;fill: currentColor;overflow: hidden;"
    viewBox="0 0 1024 1024" version="1.1" xmlns="http://www.w3.org/2000/svg" p-id="4826">
    <path
        d="M514.506 813.055l99.146-232.316 22.073 9.42-99.146 232.316zM657.796 814.603L753.74 596.9l21.962 9.679-95.945 217.702zM813.21 812.809l51.46-116.767 21.963 9.68-51.461 116.766z"
        fill="#FF8D0A" p-id="4827"></path>
    <path
        d="M755.9 559.1c-45-36.4-119.4-74.4-192.4-91.7 20.6-8.1 40-19.4 57.1-33.9 45.9-38.9 72.2-95.6 72.2-155.7 0-112.5-91.5-204-204-204s-204 91.5-204 204c0 84.9 52.2 157.8 126.1 188.5-152.7 32.6-272.5 158.8-291.5 319.2l47.7 5.6c19.3-162.6 157.6-285.3 321.7-285.3 55.8 0 124.4 23.6 179.2 53.3H476.8v282.6h431.9V559.1H755.9z m65.4 48L739 793.7H619l80.7-186.6h121.6zM332.9 277.8c0-86 70-156 156-156s156 70 156 156c0 46-20.1 89.4-55.2 119.1-28.1 23.8-63.9 36.9-100.7 36.9-86.2 0-156.1-70-156.1-156zM533 607.1l-8.2 20.3v-20.3h8.2z m-8.2 84.2l34.1-84.2h114.6l-80.7 186.6h-68V691.3z m335.9 102.4h-95.5l82.3-186.6h13.2v186.6z"
        fill="#4B5E6D" p-id="4828"></path>
</svg>