<svg class="icon" style="width: 1em;height: 1em;vertical-align: middle;fill: currentColor;overflow: hidden;" viewBox="0 0 1024 1024" version="1.1" xmlns="http://www.w3.org/2000/svg" p-id="14807"><path d="M509.7 572.3c-14.7 0-26.6 11.9-26.6 26.6v116.2c0 14.7 11.9 26.6 26.6 26.6 14.7 0 26.6-11.9 26.6-26.6V598.9c0-14.7-11.9-26.6-26.6-26.6z" fill="#E73F32" p-id="14808"></path><path d="M776.6 609.2l-145-120.6c46-41.5 67.9-103.7 56.8-167-12.9-73.7-71-132.2-144.4-145.8-54-9.9-108.8 4.2-150.4 38.8-41.6 34.6-65.4 85.5-65.4 139.6 0 51.2 21.1 98.8 57.8 132.7L242 609.5c-19.6 16.7-30.9 41.1-30.9 67.3 0 81.6 66.4 148 148 148h301.1c81.6 0 148-66.4 148-148 0-26.2-11.5-50.8-31.6-67.6zM660.2 771.5H359.1c-52.3 0-94.8-42.5-94.8-95.2 0-10.2 4.4-19.7 12.2-26.3l166.6-141.8c5.2-3.4 9.1-8.6 10.9-14.9 3.2-11.5-1.5-23.7-11.6-29.9-38.2-23.6-61.1-64.4-61.1-109.1 0-38.2 16.9-74.2 46.3-98.7 29.8-24.8 67.7-34.6 106.7-27.4 50.9 9.4 92.7 51.6 101.6 102.6 9.4 53.7-14.6 106.3-61.1 133.8-10.3 6.1-15.3 18.4-12.1 29.9 1.7 6.3 5.7 11.6 10.9 15.1l168.9 140.5c7.9 6.6 12.5 16.3 12.5 26.6 0 52.3-42.5 94.8-94.8 94.8z" p-id="14809"></path></svg>