<svg class="icon" style="width: 1em;height: 1em;vertical-align: middle;fill: currentColor;overflow: hidden;" viewBox="0 0 1024 1024" version="1.1" xmlns="http://www.w3.org/2000/svg" p-id="12192"><path d="M243.2 793.6h256v51.2H192V230.4c0-42.24 34.56-76.8 76.8-76.8h179.2c42.24 0 76.8 34.56 76.8 76.8v168.96h-51.2V230.4c0-14.08-11.52-25.6-25.6-25.6H268.8c-14.08 0-25.6 11.52-25.6 25.6v563.2z" fill="#0093CB" p-id="12193"></path><path d="M793.6 793.6V509.44c0-25.6-16.64-46.08-38.4-49.92L494.08 409.6l8.96-49.92L764.16 409.6c46.08 8.96 79.36 51.2 79.36 101.12V844.8H499.2v-51.2h294.4z" fill="#0093CB" p-id="12194"></path><path d="M179.2 793.6h704c14.08 0 25.6 11.52 25.6 25.6s-11.52 25.6-25.6 25.6H179.2c-14.08 0-25.6-11.52-25.6-25.6s11.52-25.6 25.6-25.6z" fill="#0093CB" p-id="12195"></path><path d="M217.6 819.2h256V230.4c0-28.16-23.04-51.2-51.2-51.2H268.8c-28.16 0-51.2 23.04-51.2 51.2v588.8z m51.2-665.6h153.6c42.24 0 76.8 34.56 76.8 76.8v614.4H192V230.4c0-42.24 34.56-76.8 76.8-76.8z" fill="#0093CB" p-id="12196"></path><path d="M576 563.2h140.8v230.4H576zM396.8 256h-76.8c-14.08 0-25.6 11.52-25.6 25.6v435.2c0 14.08 11.52 25.6 25.6 25.6h76.8c14.08 0 25.6-11.52 25.6-25.6V281.6c0-14.08-11.52-25.6-25.6-25.6z" fill="#E6F7FF" p-id="12197"></path><path d="M294.4 332.8h128v25.6H294.4v-25.6z m0 102.4h128v25.6H294.4v-25.6z m0 102.4h128v25.6H294.4v-25.6z m0 102.4h128v25.6H294.4v-25.6zM691.2 576h-89.6v230.4h-25.6V550.4h140.8v256h-25.6V576z" fill="#0093CB" p-id="12198"></path></svg>